<svg xmlns="http://www.w3.org/2000/svg" width="115" height="115" viewBox="0 0 115 115"><path fill="#FDC30E" d="M91.006 103.223l.309-.309 10.285-34.92c.11-.191.11-.426 0-.617l-.874-.668c-.179-.084-.387-.084-.565 0-2.623.874-5.143 1.543-7.561 2.108-2.188.53-4.401.942-6.634 1.233-3.636.488-7.319.488-10.954 0-2.998-.417-5.923-1.248-8.691-2.468-2.583-1.155-5.061-2.532-7.406-4.114-.497-.325-1.163-.188-1.491.309l-10.698 35.794c-.115.341.039.714.36.874 2.491 1.609 5.125 2.986 7.868 4.115 1.507.645 3.053 1.193 4.629 1.645 1.688.477 3.406.838 5.143 1.08 1.875.254 3.766.374 5.657.36 2.021.137 4.048.137 6.068 0 2.417-.367 4.806-.899 7.148-1.595 2.522-.797 4.995-1.741 7.407-2.827z"/><path fill="#28B2E7" d="M42.714 96.28c.032-.101.032-.208 0-.309l10.286-34.867c.194-.477.315-.979.36-1.492-4.697-3.312-10.104-5.478-15.789-6.326-1.701-.27-3.42-.407-5.143-.412-1.982.05-3.958.239-5.915.566-2.257.381-4.49.896-6.686 1.543-2.314.72-4.783 1.646-7.509 2.623l-10.8 36v.463l1.028.36h.414c3.479-1.36 7.055-2.461 10.697-3.292 2.904-.648 5.87-.977 8.846-.977 2.196.007 4.386.248 6.531.72 1.958.435 3.869 1.055 5.708 1.852 2.422 1.114 4.76 2.403 6.995 3.856h.463l.514-.308z"/><path fill="#90C33E" d="M112.657 22.429c-2.469.994-4.972 1.852-7.509 2.571-2.196.633-4.429 1.131-6.686 1.491-1.854.299-3.728.471-5.605.515-1.72.027-3.439-.076-5.144-.309-3.02-.417-5.964-1.265-8.742-2.52-2.572-1.177-5.048-2.552-7.406-4.114h-.925c-.265.155-.493.365-.668.617l-10.749 36c0 .72.36.977 2.932 2.366 3.773 2.404 7.931 4.144 12.291 5.143 2.469.528 4.984.804 7.509.823 2.869-.199 5.712-.682 8.486-1.44 4.533-.787 8.943-2.171 13.114-4.114.187-.041.352-.151.463-.309l10.594-36c-.398-.674-1.216-.976-1.955-.72z"/><path fill="#F2692E" d="M13.966 49.994c-.052.132-.052.279 0 .412.348.5.937.774 1.543.72 7.206-3.251 15.1-4.682 22.988-4.166 2.816.379 5.567 1.141 8.177 2.263 2.499 1.072 4.907 2.345 7.2 3.806h.978c.23-.053.41-.232.463-.462l10.285-34.407c.178-.552.178-1.146 0-1.697-1.662-1.097-3.378-2.11-5.143-3.034-4.432-2.521-9.408-3.932-14.503-4.114-3.198-.036-6.39.292-9.514.977-4.006.877-7.929 2.099-11.726 3.651l-.668 2.108-10.08 33.943z"/></svg>
