<svg xmlns="http://www.w3.org/2000/svg" width="115" height="115" viewBox="0 0 115 115"><path fill="#DC4A26" d="M57.501 3.294c-29.938 0-54.206 24.269-54.206 54.206 0 29.937 24.269 54.206 54.206 54.206 29.937 0 54.205-24.27 54.205-54.206 0-29.937-24.268-54.206-54.205-54.206zm12.188 18.669c1.984-3.479 6.413-4.689 9.892-2.705s4.689 6.413 2.705 9.892-6.413 4.689-9.892 2.705l-.031-.018c-3.457-1.994-4.651-6.407-2.674-9.874zm-3.909 4.988c.969 5.598 6.292 9.35 11.89 8.381.592-.103 1.174-.257 1.739-.461 5.529 5.473 8.829 12.804 9.257 20.571h-10.285l.205-.154c-1.01-11.63-11.257-20.238-22.887-19.229-2.458.214-4.859.855-7.096 1.897l-5.143-8.897c6.934-3.404 14.873-4.154 22.32-2.108zm-45.154 37.543c-4.004.028-7.273-3.195-7.303-7.2-.028-4.004 3.195-7.273 7.2-7.303 4.005-.028 7.274 3.195 7.303 7.2v.052c0 3.985-3.215 7.223-7.2 7.251zm6.429.926v-.257c4.374-3.625 4.982-10.109 1.357-14.483-.409-.493-.863-.948-1.357-1.357 1.963-7.47 6.591-13.964 13.012-18.257l5.143 8.846c-9.558 6.703-11.872 19.885-5.169 29.442 1.409 2.01 3.159 3.76 5.169 5.169l-5.143 8.846c-6.361-4.218-10.982-10.593-13.012-17.949zm52.508 30.086c-3.469 2.001-7.903.812-9.905-2.657-2.001-3.469-.812-7.903 2.657-9.904 3.469-2.002 7.903-.813 9.904 2.656l.018.03c1.979 3.467.784 7.88-2.674 9.875zm-.051-15.583l.052-.257c-5.343-1.93-11.238.837-13.168 6.181-.204.564-.358 1.146-.461 1.739-7.438 2.017-15.356 1.249-22.269-2.16l5.144-9c10.626 4.833 23.158.137 27.991-10.489.948-2.084 1.551-4.308 1.785-6.585h10.286c-.456 7.781-3.793 15.115-9.36 20.571z"/></svg>
