<svg xmlns="http://www.w3.org/2000/svg" width="115" height="115" viewBox="0 0 115 115"><path fill="#3C4042" d="M85.16 60.339c.041-8.423 4.465-16.217 11.674-20.571-4.488-6.379-11.697-10.298-19.491-10.594-8.28-.875-16.251 5.143-20.571 5.143s-10.697-4.783-17.589-4.629c-9.094.379-17.336 5.465-21.754 13.423-9.412 16.303-2.417 40.577 6.943 53.794 4.474 6.48 9.823 13.783 16.869 13.526 7.045-.258 9.308-4.372 17.485-4.372s10.286 4.372 17.64 4.269c7.355-.103 11.675-6.634 16.355-13.114 3.208-4.753 5.703-9.951 7.404-15.428-8.764-3.614-14.516-12.121-14.605-21.601"/><path fill="#3C4042" d="M56.154 28.196c-.717-12.595 8.678-23.49 21.24-24.635.309 10.852-6.48 25.046-21.24 24.635z"/></svg>
