<svg xmlns="http://www.w3.org/2000/svg" viewBox="-56 277 1976 523"><path fill="#E30000" d="M315.029 357.858H105.224L.323 539.555l104.901 181.696h209.805l104.903-181.696z"/><path fill="#F04A4A" d="M404.293 537.315l-95.421-165.274h-99.669v330.551h99.669z"/><path fill="#EAE1DA" d="M431.59 551.417l-50.865 16.012c-.681.217-.979.063-1.506-.019l-17.947-3.759a3.102 3.102 0 0 1-2.076-2.586c-.135-1.205.481-2.403 1.614-2.767l31.204-14.974-7.705-16.28-56.427 27.537c-.455.144-1.133.361-1.66.28l-21.566-3.352c-1.351-.319-2.095-1.081-2.529-2.441-.136-1.207.255-2.33 1.315-2.919l48.475-29.744-8.856-14.414-42.417 25.795c.692-2.837 1.239-5.66 1.575-8.442.992-8.217-.019-16.144-2.979-23.713l41.611-3.679-1.619-15.228-48.965 3.723c-.195-.242-.378-.486-.578-.728a73.405 73.405 0 0 0-5.769-6.17l11.848-13.17c.606-.445 1.062-.59 1.741-.807l61.392-8.881-3.623-17.586-32.987 7.047c-1.207.136-2.331-.254-2.992-1.542-.816-.989-.725-2.268.191-3.311l13.898-15.94c.381-.372.761-.744 1.442-.961l49.042-14.679 13.849-66.909-64.987 19.527-11.859 52.027c-.082.526-.163 1.052-.544 1.424l-12.211 13.401c-.916 1.043-2.122 1.178-3.247.788-1.197-.617-1.787-1.679-1.695-2.957l2.684-34.599-17.975-1.501-4.461 62.659a2.87 2.87 0 0 1-.771 1.496l-11.678 14.281a101.962 101.962 0 0 0-7.314-4.343l-1.276-51.444-16.869.395.873 43.657c-6.695-2.172-13.159-3.485-18.833-3.866l-.262-.021c-2.399-.168-4.787-.448-7.095-.72a357.65 357.65 0 0 0-3.067-.348l19.679-40.917-15.189-7.641-23.715 48.806c-2.238.266-4.505.606-6.794 1.017l-5.313-20.375c.009-.753-.136-1.206.173-1.805l21.955-58.753-16.94-6.081-11.844 32.528c-.39 1.125-1.605 2.013-2.884 1.922-1.052-.164-2.249-.781-2.611-1.914l-5.582-17.46c-.145-.454-.063-.979.019-1.505l11.033-52.263-50.793-44.744-15.427 66.663 38.507 33.676c.445.607.817.988.961 1.442l5.772 20.398c.362 1.133.044 2.485-1.017 3.074-.988.816-2.494.797-3.464.108l-26.93-20.132-10.642 14.399 51.984 33.615c.671.536 1.043.917 1.26 1.597l6.166 19.285c-.914.265-1.836.517-2.736.799a135.486 135.486 0 0 0-4.6 1.54l-45.092-24.828-8.065 13.075 19.408 11.055a153.772 153.772 0 0 0-4.47-.073c-7.102 0-13.342.541-18.517 1.556l-2.183-3.198-13.969 9.465 1.49 2.206a2734.634 2734.634 0 0 0-2.583 33.905l-32.815-39.766-13.77 11.65 22.258 26.624c.816.989.952 2.195.334 3.393-.689.97-1.75 1.559-3.102 1.241l-17.72-3.832c-.526-.082-.897-.463-1.496-.771L8.252 460.075l-64.261 21.793 50.095 46.466 48.461-16.493c.681-.218 1.207-.135 1.732-.054l20.567 4.922a3.097 3.097 0 0 1 2.076 2.585c.208 1.433-.481 2.403-1.542 2.992l-30.957 13.396 7.251 16.426 50.722-26.098c-.444 8.908-.646 15.912-.444 19.245 2.319-1.811 6.587-5.742 11.047-9.849 2.926-2.695 6.203-5.707 9.75-8.902l5.423 1.21c.063.271.114.538.181.81.426 1.74.913 3.403 1.421 5.028l-46.979 28.351 7.515 13.344 45.573-26.744a156.598 156.598 0 0 0 2.324 4.449l.362.668-.198.734a96.169 96.169 0 0 0-3.262 27.391l-40.775 2.96 1.147 16.879 41.278-2.792a94.405 94.405 0 0 0 4.65 16.584l-2.692 2.626c-.607.444-1.061.589-1.514.734L65.27 629.041l2.943 17.804 34.329-5.977c1.133-.362 2.331.254 2.92 1.316.589 1.061.498 2.341-.418 3.382l-12.211 13.402c-.381.371-.762.742-1.215.887l-50.72 16.467-13.541 66.311 65.441-19.672 10.107-50.469c.082-.525.236-.824.545-1.422l14.868-15.252c.989-.815 2.123-1.179 3.32-.561 1.197.616 1.786 1.679 1.695 2.956l-4.1 33.302 17.966 2.253 3.121-60.965a87.407 87.407 0 0 0 6.23 8.386 83.428 83.428 0 0 0 14.542 13.574l.32 17.02 15.281.112-.045-8.264a74.876 74.876 0 0 0 15.393 4.7l-2.806 6.053 5.549 2.341v13.956l14.416 8.339a.41.41 0 0 0 .057.004c.029 0 .053-.004.064-.004l14.342-8.3c.03-.026.051-.047.067-.063v-16.714l-8.174-4.727 4.95-.986a75.571 75.571 0 0 0 14.261-4.345l-18.497 46.593 17.021 5.555 10.257-32.021c.392-1.125 1.606-2.013 2.885-1.922 1.206-.136 2.249.78 2.612 1.914l7.132 19.963c.145.456.135 1.207.054 1.733L244.4 755.469l51.238 45.351 15.417-65.911-39.305-36.169c-.373-.382-.744-.763-.889-1.215l-5.582-17.46c-.362-1.135.254-2.331 1.017-3.075.988-.815 2.494-.797 3.464-.108l28.518 19.625 10.271-14.78-49.696-33.587a86.21 86.21 0 0 0 13.148-15.885l29.655 16.186 7.939-15.034-29.727-16.382c4.395-10.886 6.843-22.875 6.883-35.413l31.662 44.977 12.381-8.956-31.43-45.935c-.816-.989-.653-2.041-.035-3.238.689-.97 1.822-1.333 2.875-1.169l20.722 4.621c.753.01 1.352.318 1.795.927l38.549 48.655 13.326-12.257-22.657-24.746c-.816-.99-.952-2.195-.334-3.393.618-1.196 1.751-1.56 3.029-1.469l20.731 3.869c.598.31 1.124.391 1.496.771l37.51 35.245 64.715-21.94-49.496-46.157zm-89.412-160.559l7.209-22.949c.258-.917.975-1.704 2.021-1.904l23.392-5.774c1.046-.201 1.962.058 2.75.774.724.945.923 1.991.665 2.908l-7.016 22.261c-.323 1.146-.975 1.704-2.021 1.904l-23.585 6.461c-1.045.2-1.961-.059-2.75-.775-.723-.944-.924-1.989-.665-2.906zM160.579 329.9l-4.206 23.587c-.39 1.125-.926 1.795-2.06 2.158-.906.29-1.959.126-2.929-.563l-17.79-16.556c-.743-.762-1.033-1.669-.87-2.721l4.35-23.134c.164-1.052.699-1.724 1.833-2.086.907-.29 1.958-.126 2.929.563l17.871 16.03c.745.763 1.036 1.67.872 2.722zM24.721 498.297c-.164 1.052-.926 1.796-2.059 2.158l-23.201 7.167c-.907.29-1.959.126-2.703-.635l-17.808-15.051c-.744-.762-1.034-1.669-.87-2.721.164-1.052.853-2.022 1.76-2.311l22.829-7.549c1.134-.363 2.187-.199 2.93.563l18.18 15.433a3.528 3.528 0 0 1 .942 2.946zm58.092 185.617l-5.412 23.724c-.164 1.054-.925 1.795-1.833 2.086l-22.004 7.783c-1.134.365-1.959.128-2.929-.563-.744-.761-1.034-1.669-.871-2.72l4.958-23.578c.164-1.053.925-1.796 1.833-2.086l22.684-8.003c.906-.29 1.958-.127 2.703.637.972.689 1.262 1.596.871 2.72zm181.703 64.123l4.885-23.804c.392-1.125 1.153-1.868 2.06-2.158 1.134-.361 2.031.101 2.929.563l17.109 16.773c.743.761 1.034 1.67.87 2.721l-5.258 23.424c-.39 1.125-1.152 1.867-2.059 2.159-1.134.362-1.959.127-2.702-.637l-16.964-16.318c-.743-.763-1.033-1.669-.87-2.723zm180.648-155.724l-22.438 6.426c-1.134.362-1.959.126-2.703-.637l-18.396-16.111c-.744-.762-1.034-1.67-.871-2.722.391-1.124 1.152-1.867 2.06-2.157l23.119-6.643c.907-.29 1.959-.125 2.703.636l17.716 16.33c.744.762 1.034 1.669.871 2.72-.392 1.127-1.154 1.868-2.061 2.158z"/><path fill="#840000" d="M288.659 581.301c0 49.854-37.027 90.263-82.701 90.263-45.677 0-82.708-40.409-82.708-90.263 0-49.86 37.031-90.279 82.708-90.279 45.674 0 82.701 40.418 82.701 90.279z"/><path fill="#7A4005" d="M288.592 579.388c0 49.854-37.027 90.266-82.704 90.266-45.678 0-82.709-40.411-82.709-90.266 0-49.859 37.032-90.277 82.709-90.277 45.677 0 82.704 40.418 82.704 90.277z"/><path fill="#FFF" d="M224.736 672.33l-14.596-8.442c-.5-.252-1.27-.252-1.782 0l-14.581 8.442c-.507.376-.895.889-.895 1.53v16.902c0 .642.375 1.284.895 1.535l14.593 8.439c.5.25 1.27.25 1.784 0l14.583-8.439c.503-.38.896-.894.896-1.535V673.86c-.002-.641-.381-1.282-.897-1.53zm-15.523-3.267a1.237 1.237 0 0 1-1.242-1.236c0-.688.555-1.246 1.242-1.246.686 0 1.241.559 1.241 1.246a1.236 1.236 0 0 1-1.241 1.236z"/><path fill="#E30000" d="M207.333 689.032l.65.208c.315.099.67.147 1.063.147.71 0 1.295-.24 1.76-.725.463-.483.694-1.099.694-1.845 0-1.047-.483-1.884-1.448-2.514a4.016 4.016 0 0 1-.68-.533 36.327 36.327 0 0 1-1.211-.71 9.533 9.533 0 0 1-1.005-.768c-.021-.02-.375-.305-1.064-.856-.867-.671-1.37-1.152-1.507-1.449-.631-1.301-.927-2.108-.887-2.424l.06-.532-.06-.679c-.02-.119.02-.308.118-.563a3.3 3.3 0 0 0 .119-.354c.158-.591.321-1.005.488-1.24.167-.235.497-.533.99-.888.394-.274.645-.442.753-.501.108-.06.291-.119.547-.179a11.018 11.018 0 0 1 2.719-.324c.158 0 .434.021.828.059.177.039.354.069.532.089h.827c.434 0 1.074.197 1.922.592.629.294.945.661.945 1.093 0 .118-.138.404-.413.858-.02.058-.088.414-.207 1.063s-.424.975-.917.975c-.216 0-.591-.196-1.123-.591-.276-.196-.655-.384-1.139-.562-.482-.177-.832-.266-1.049-.266-.177.021-.492.039-.946.06-.315.019-.596.161-.842.429-.246.267-.369.555-.369.871 0 .572.433 1.152 1.301 1.743 1.95 1.32 3.379 2.453 4.286 3.4.906.944 1.527 1.833 1.862 2.659.295.751.444 1.359.444 1.832 0 1.204-.178 2.227-.533 3.076a5.36 5.36 0 0 1-1.24 1.772c-.67.65-1.508 1.084-2.513 1.301-.355.077-1.183.118-2.483.118-.158-.021-.572-.07-1.241-.148-.966-.118-1.616-.235-1.951-.354l-.709-.148c-.75-.156-1.218-.319-1.404-.486-.188-.167-.282-.558-.282-1.168 0-.158.07-.408.207-.755.138-.344.208-.526.208-.546l.088-.68c.099-.729.345-1.104.739-1.122.236-.021.611.172 1.123.574.512.407 1.161.737 1.95.991z"/><path fill="#EAE1DA" d="M227.696 445.858c-6.092-.404-12.046-1.572-17.944-1.572-6.287 0-12.797.643-19.336 1.835-47.012 8.557-85.197 36.833-73.908 82.855 5.552 22.637 19.051 37.191 24.233 51.618 13.747 38.294 12.419 57.954 38.623 66.447 9.795 3.169 20.346 4.9 31.341 4.9 13.348 0 26.042-2.553 37.531-7.146 24.007-9.597 23.198-27.973 34.946-66.474 4.311-14.112 18.378-37.64 20.924-58.75 5.279-43.732-45.627-71.647-76.41-73.713z"/><path fill="#DD8C4A" d="M202.93 494.859c0-17.897-4.596-34.594-12.527-48.735-47.005 8.561-85.185 36.835-73.895 82.852 5.552 22.637 19.051 37.191 24.233 51.618.055.15.097.285.151.437 35.678-9.5 62.038-43.238 62.038-86.172zM227.696 445.858c-.089-.006-.176-.016-.266-.022-8.031 14.202-12.693 31.001-12.693 49.023 0 45.016 28.984 79.896 67.295 87.358.382-1.293.74-2.555 1.15-3.895 4.311-14.112 18.378-37.64 20.924-58.75 5.279-43.733-45.627-71.648-76.41-73.714z"/><path d="M228.101 617.729c0 4.663-9.667 13.931-14.335 13.931-4.671 0-12.395-9.268-12.395-13.931a8.459 8.459 0 0 1 8.461-8.46h9.811a8.456 8.456 0 0 1 8.458 8.46zM176.548 539.979c0 7.8-6.319 14.116-14.119 14.116s-14.121-6.316-14.121-14.116c0-7.801 6.32-14.119 14.121-14.119 7.8 0 14.119 6.318 14.119 14.119z"/><path fill="#FFF" d="M166.323 534.109a5.871 5.871 0 1 1-11.742 0 5.872 5.872 0 0 1 11.742 0z"/><path d="M277.692 539.979c0 7.8-6.32 14.116-14.119 14.116-7.8 0-14.122-6.316-14.122-14.116 0-7.801 6.322-14.119 14.122-14.119 7.799 0 14.119 6.318 14.119 14.119z"/><path fill="#FFF" d="M267.463 534.109a5.871 5.871 0 0 1-5.866 5.87 5.872 5.872 0 0 1-5.873-5.87 5.87 5.87 0 0 1 11.739 0z"/><path fill="#7A4005" d="M190.426 484.212s29.163-2.188 9.209-16.998-91.631-23.667-104.56-6.682c0 0-7.087 84.688-4.512 87.503 2.573 2.805 65.166-68.631 99.863-63.823z"/><path fill="#D86F6F" d="M205.888 640.256s-3.124 9.179 8.853 9.179c11.972 0 7.231-9.179 7.231-9.179l-7.159-3.124-8.925 3.124z"/><path fill="#7A4005" d="M227.783 641.892c-2.698 0-4.9-.859-6.917-1.646-1.938-.758-3.771-1.473-5.979-1.473h-.064c-1.1.007-2.348.508-3.787 1.09-2.922 1.178-6.553 2.646-11.172.67-3.944-1.699-11.465-9.064-12.749-13.184a1.643 1.643 0 0 1 3.138-.976c.907 2.92 7.537 9.688 10.912 11.142 3.349 1.438 5.923.401 8.64-.696 1.683-.68 3.271-1.319 5.003-1.331 2.758-.111 5.094.854 7.256 1.697 2.735 1.068 5.095 1.994 8.559 1.008 5.042-1.427 9.426-9.9 11.076-13.094a1.643 1.643 0 0 1 2.918 1.509c-3.115 6.021-7.419 13.136-13.1 14.747a13.632 13.632 0 0 1-3.734.537z"/><path fill="#E30000" d="M361.796 374.146l7.648 7.639c.318 1.084 1.335 1.288 2.166 1.727 1.291 1.81 2.607 3.602 3.869 5.432 3.118 4.521 6.974 8.564 8.968 13.815-.043.533-.251 1.115-.106 1.59 1.539 5.064 2.227 10.2-2.273 14.016-4.767 4.042-10.278 3.339-15.837 1.341a138.79 138.79 0 0 0-13.412-4.08c-12.233-3.043-23.886-.625-35.977 4.987-2.113-23.632-10.161-45.36-13.756-67.942 3.552-1.144 4.608 2.509 7.52 1.82-.16-2.315-1.417-3.991-2.857-5.519-1.37-1.451-2.908-2.954-5.128-2.351-2.378.646-2.466 2.837-2.682 4.816-.418 3.832.382 7.529 1.371 11.187 7.279 26.95 14.11 54 16.614 81.905.82 9.146.914 18.346.125 28.358-3.473-2.908-6.183-5.238-8.957-7.49-15.408-12.515-31.35-23.995-49.8-32-26.941-11.689-54.748-18.684-84.141-19.479-6.119-.166-12.209-1.362-18.674-2.125 1.686-2.985 3.067-5.261 5.346-6.837 13.14.319 26.141 2.125 39.177 3.584 22.863 2.558 44.563 9.042 65.349 18.825 7.514 3.536 13.936 9.05 21.529 12.243 10.867 4.569 12.691 1.219 13.47-7.025 1.467-15.536-1.623-30.697-3.341-45.978-1.242-11.029-4.088-21.96-3.484-33.092.738-13.608 7.502-16.839 18.754-9.364 7.481 4.971 14.57 10.534 22.071 15.472 3.669 2.415 7.668 4.915 12.533 2.986 5.13 3.253 8.175 9.022 13.915 11.539z"/><path fill="#512500" d="M395.734 378.125c-8.933-1.648-17.103.41-25.262 3.295-3.779-3.974-7.929-7.941-10.325-10.102-2.504-3.478-6.122-5.949-9.157-8.91-14.306-13.956-28.716-27.782-46.156-37.986-18.2-10.647-36.663-11.624-55.71-2.539-13.248 6.321-25.352 14.415-36.841 23.47-23.751 18.716-44.086 40.863-63.661 63.748-2.064 2.413-4.104 3.377-7.293 3.452-11.164.264-22.289 1.328-33.22 3.676-10.414 2.237-14.329 6.858-15.121 17.388-.662 8.81-.809 17.639.436 26.414 3.119 21.989 12.85 30.729 35.042 31.58 1.978.075 3.961-.024 5.942-.013 18.569.1 37.177.067 55.35 4.599 26.597 6.632 50.121 19.595 72.147 35.567 8.152 5.912 16.252 11.915 24.639 17.477 8.724 5.787 17.979 5.699 27.187.958 8.469-4.358 15.365-10.537 21.14-18.131 15.484-20.358 15.188-29.474-3.488-46.702-6.523-6.018-10.226-11.67-9.438-21.047 1.079-12.834-1.028-25.696-3.354-38.22 13.151-7.098 19.958-8.702 29.602-7.116.441 3.923.631 7.888 1.364 11.75 4.262 22.459 24.461 38.535 44.951 35.912 20.058-2.568 36.627-21.73 37.149-42.955.547-22.436-14.819-41.671-35.923-45.565zm-63.075 114.017c1.659 1.651 3.23 3.391 4.86 5.072 5.846 6.033 7.005 13.315 3.4 20.436-5.968 11.788-14.556 21.462-26.964 26.962-9.88 4.382-19.354 3.981-28.707-2.165-16.222-10.661-32.092-21.88-48.971-31.522-30.972-17.694-64.516-23.869-99.801-22.436-6.815.277-13.635.568-20.369-1.456-8.515-2.56-13.942-8.059-16.385-16.403-2.734-9.339-3.66-18.938-3.101-28.665.061-1.079.198-2.16.167-3.237-.324-11.667 3.136-16.574 14.347-19.732 12.661-3.567 25.69-2.941 38.629-2.916 12.428.024 24.85.529 43.123 2.278 53.418 3.159 99.195 33.379 139.772 73.784zm-15.817-71.529c-2.113-23.632-10.161-45.36-13.756-67.942 3.552-1.144 4.608 2.509 7.52 1.82-.16-2.315-1.417-3.991-2.857-5.519-1.37-1.451-2.908-2.954-5.128-2.351-2.378.646-2.466 2.837-2.682 4.816-.418 3.832.382 7.529 1.371 11.187 7.279 26.95 14.11 54 16.614 81.905.82 9.146.914 18.346.125 28.358-3.473-2.908-6.183-5.238-8.957-7.49-15.408-12.515-31.35-23.995-49.8-32-26.941-11.689-54.748-18.685-84.141-19.479-6.119-.166-12.209-1.362-18.674-2.125 1.686-2.985 3.067-5.261 5.346-6.837 22.116-27.491 44.582-54.624 75.201-73.406 7.731-4.742 15.913-8.475 24.842-10.19 12.13-2.332 23.87-.444 35.251 4.052 20.166 7.963 35.478 22.568 50.763 37.197a.022.022 0 0 1 .005.003c10.225 8.801 35.986 41.11 36.586 43.378.544 2.055.687 5.063.708 7.556-.452 1.745-1.41 3.377-3.111 4.82-4.767 4.042-10.278 3.339-15.837 1.341a138.79 138.79 0 0 0-13.412-4.08c-12.233-3.044-23.886-.627-35.977 4.986zm98.446 29.16c-11.498 13.619-29.52 16.398-43.662 6.821-12.719-8.614-18.332-21.141-18.93-36.467 4.348-.476 7.896 1.457 11.536 2.655 4.017 1.322 7.993 1.875 12.199 1.41 4.768-.526 9.784-1.081 11.667-6.177 1.291-3.494 1.153-6.863-.138-9.972-.91-3.356-7.68-14.073-10.38-18.216-1.146-1.757-3.094-4.071-5.324-6.503 7.008-2.049 13.975-4.197 21.48-2.637 15.205 3.163 25.109 12.753 30.144 26.778 5.544 15.446 1.895 29.887-8.592 42.308z"/><path fill="#E30000" d="M161.823 404.956c22.116-27.491 44.582-54.624 75.201-73.406 7.731-4.742 15.913-8.475 24.842-10.19 12.13-2.332 23.87-.444 35.251 4.052 20.166 7.963 35.478 22.568 50.763 37.197-4.864 1.927-8.864-.573-12.533-2.988-7.501-4.938-14.59-10.501-22.071-15.472-11.252-7.475-18.016-4.244-18.754 9.364-.604 11.132 2.243 22.063 3.484 33.092 1.718 15.281 4.808 30.442 3.341 45.978-.778 8.245-2.603 11.594-13.47 7.025-7.593-3.193-14.015-8.707-21.529-12.243-20.785-9.783-42.485-16.267-65.349-18.825-13.035-1.46-26.036-3.266-39.176-3.584z"/><path fill="#FEFEFE" d="M371.61 383.512c7.225-2.102 14.388-4.433 22.124-2.825 15.205 3.163 25.109 12.753 30.144 26.778 5.546 15.446 1.897 29.888-8.59 42.31-11.498 13.618-29.52 16.396-43.662 6.82-12.719-8.615-18.332-21.142-18.93-36.468 4.348-.476 7.896 1.457 11.536 2.655 4.017 1.322 7.993 1.875 12.199 1.41 4.768-.526 9.784-1.081 11.667-6.177 2.064-5.591.475-10.862-3.649-15.256-1.995-5.25-5.851-9.294-8.968-13.815-1.264-1.831-2.58-3.623-3.871-5.432zM192.888 418.357c53.417 3.16 99.194 33.38 139.771 73.784 1.659 1.651 3.23 3.391 4.86 5.072 5.845 6.033 7.005 13.315 3.4 20.436-5.968 11.788-14.556 21.462-26.964 26.962-9.88 4.382-19.354 3.981-28.707-2.165-16.222-10.661-32.092-21.88-48.971-31.522-30.972-17.694-64.516-23.869-99.801-22.436-6.815.277-13.635.568-20.369-1.456-8.515-2.56-13.942-8.059-16.385-16.403-2.734-9.339-3.66-18.938-3.101-28.665.061-1.079.198-2.16.167-3.237-.324-11.667 3.136-16.574 14.347-19.732 12.661-3.567 25.69-2.941 38.629-2.916 12.429.024 24.851.529 43.124 2.278z"/><path fill="#D72B2A" d="M1920 545.427v19.563c0 18.397-5.11 32.502-15.331 42.314a52.41 52.41 0 0 1-37.5 14.595c-14.759 0-26.584-4.007-35.476-12.02v53.229a7.059 7.059 0 0 1-2.055 5.06 6.53 6.53 0 0 1-4.875 2.115h-47.373a6.99 6.99 0 0 1-6.899-6.898V495.417a6.99 6.99 0 0 1 6.899-6.898h43.54a6.468 6.468 0 0 1 4.876 2.177 7.335 7.335 0 0 1 2.054 5.182v8.188c8.872-10.527 21.412-15.802 37.622-15.822 16.211-.021 29.354 4.641 39.432 13.982 10.057 9.32 15.086 23.72 15.086 43.201zm-88.338 2.054v17.079c.512 7.686 4.783 11.528 12.816 11.528 8.525 0 12.787-4.456 12.787-13.368v-15.33c0-8.912-4.262-13.369-12.787-13.369-8.523 0-12.796 4.478-12.816 13.431v.029zm-80.365-2.054v19.563c0 18.397-5.11 32.502-15.331 42.314a52.409 52.409 0 0 1-37.499 14.595c-14.76 0-26.584-4.007-35.477-12.02v53.229a7.055 7.055 0 0 1-2.055 5.06 6.53 6.53 0 0 1-4.875 2.115h-47.373a6.99 6.99 0 0 1-6.898-6.898V495.417a6.99 6.99 0 0 1 6.898-6.898h43.51a6.466 6.466 0 0 1 4.875 2.177 7.332 7.332 0 0 1 2.055 5.182v8.188c8.871-10.527 21.412-15.802 37.622-15.822s29.354 4.641 39.432 13.982c10.077 9.32 15.116 23.72 15.116 43.201zm-88.338 2.054v17.079c.512 7.686 4.783 11.528 12.817 11.528 8.524 0 12.786-4.456 12.786-13.368v-15.33c0-8.912-4.262-13.369-12.786-13.369s-12.796 4.478-12.817 13.431v.029zm-203.534-105.047h55.56a10.732 10.732 0 0 1 11.529 8.432l57.092 163.337c.198.792.281 1.607.246 2.423a4.786 4.786 0 0 1-1.656 3.312 5.424 5.424 0 0 1-3.955 1.655h-47.403a9.505 9.505 0 0 1-9.996-6.408l-6.132-16.895h-55.192l-6.132 16.895a9.502 9.502 0 0 1-9.904 6.438h-47.312a5.395 5.395 0 0 1-3.956-1.655 4.783 4.783 0 0 1-1.655-3.312 8.407 8.407 0 0 1 .245-2.422l57.093-163.338a10.728 10.728 0 0 1 11.528-8.462zm13.306 105.998h29.007l-14.656-47.618-14.351 47.618zm-183.297-38.174h90.361a6.99 6.99 0 0 1 6.899 6.898v36.396a6.99 6.99 0 0 1-6.899 6.898h-90.361a6.989 6.989 0 0 1-6.898-6.898v-36.365a6.989 6.989 0 0 1 6.898-6.929zm-69.788 23.057v28.179c0 8.545 3.67 12.807 11.008 12.786h23.304a6.992 6.992 0 0 1 6.93 6.899v33.544a6.99 6.99 0 0 1-7.053 6.898h-28.914c-42.682 0-64.013-18.396-63.992-55.191v-33.115h-20.237a6.99 6.99 0 0 1-6.898-6.898v-31a6.99 6.99 0 0 1 6.898-6.898h20.237v-39.861a6.129 6.129 0 0 1 2.055-4.63 6.808 6.808 0 0 1 4.875-1.962h44.798a6.842 6.842 0 0 1 4.875 1.962 6.14 6.14 0 0 1 2.055 4.63v39.861h32.256a6.991 6.991 0 0 1 6.93 6.898v30.969a6.99 6.99 0 0 1-6.93 6.899h-32.195v.03zm-250.754 31.46v-69.48a6.465 6.465 0 0 1 2.055-4.783 6.683 6.683 0 0 1 4.875-2.024h48.906a6.753 6.753 0 0 1 4.876 1.993 6.412 6.412 0 0 1 2.054 4.753v67.119c0 9.158 4.263 13.727 12.786 13.706 8.524-.021 12.756-4.589 12.694-13.706v-67.119a6.379 6.379 0 0 1 2.055-4.753 6.746 6.746 0 0 1 4.875-1.993h48.63a6.99 6.99 0 0 1 6.899 6.899v119.337a6.99 6.99 0 0 1-6.838 6.898h-44.798a6.497 6.497 0 0 1-4.875-2.146 7.12 7.12 0 0 1-2.055-5.09v-8.831c-8.033 10.896-22.199 16.343-42.497 16.343a47.77 47.77 0 0 1-35.323-14.473c-9.546-9.648-14.318-23.864-14.319-42.65zm-162.571-1.411v-16.711c0-18.806 6.909-33.248 20.728-43.325 13.818-10.078 31.654-15.106 53.506-15.086 21.852 0 39.688 5.028 53.505 15.086 13.819 10.057 20.728 24.499 20.728 43.325v16.711c0 18.97-6.653 33.452-19.961 43.448-13.307 9.996-31.397 14.983-54.271 14.963-22.874 0-40.965-4.987-54.272-14.963-13.308-9.975-19.963-24.458-19.963-43.448zm85.855 1.472v-19.623a22.197 22.197 0 0 0-2.545-12.449c-5.042-4.705-12.865-4.705-17.907 0a22.165 22.165 0 0 0-2.545 12.449v19.746c0 6.275.849 10.507 2.545 12.694a10.73 10.73 0 0 0 8.954 3.28 10.364 10.364 0 0 0 8.953-3.525 22.236 22.236 0 0 0 2.453-12.449l.092-.123zM712.097 546.93v16.435a21.467 21.467 0 0 0 2.3 11.406 7.971 7.971 0 0 0 7.175 3.496c2.322.238 4.659-.29 6.653-1.503a16.722 16.722 0 0 0 3.711-5.825 7.235 7.235 0 0 1 7.297-4.508h49.918a6.716 6.716 0 0 1 4.876 1.993 7.05 7.05 0 0 1 2.054 5.273 24.525 24.525 0 0 1-2.299 8.77 54.537 54.537 0 0 1-7.941 12.541 69.977 69.977 0 0 1-13.859 12.97 72.856 72.856 0 0 1-21.464 9.904 101.83 101.83 0 0 1-29.436 4.017c-21.341 0-38.624-5.406-51.85-16.221-13.226-10.813-19.858-25.786-19.899-44.92v-11.375c0-19.134 6.612-34.106 19.838-44.92s30.509-16.221 51.85-16.221a98.96 98.96 0 0 1 34.311 5.642 66.03 66.03 0 0 1 23.672 13.798 72.394 72.394 0 0 1 12.725 15.822 27.596 27.596 0 0 1 4.354 11.896 8.277 8.277 0 0 1-2.054 6.133 6.712 6.712 0 0 1-4.876 1.993h-49.918a8.065 8.065 0 0 1-7.42-4.661c-2.392-4.66-5.55-6.99-9.475-6.99-6.829.102-10.243 5.12-10.243 15.055zm-216.076-88.92c14.432-10.548 33.38-15.822 56.847-15.822s42.62 5.643 57.461 16.926c14.942 11.345 22.414 23.19 22.414 35.537a5.37 5.37 0 0 1-1.809 4.018 5.154 5.154 0 0 1-3.71 1.655h-51.206a16.26 16.26 0 0 1-10.763-4.108 19.569 19.569 0 0 0-13.062-4.109c-8.177 0-12.265 2.311-12.265 6.93 0 2.474 2.044 4.518 6.132 6.133a99.237 99.237 0 0 0 22.414 4.446c25.429 3.127 43.561 8.851 54.395 17.17 10.834 8.32 16.251 20.933 16.251 37.838 0 16.904-7.982 30.672-23.947 41.302-15.965 10.629-36.835 15.944-62.611 15.944-25.777 0-46.004-5.243-60.681-15.73-14.677-10.486-22.016-23.252-22.016-38.297a5.341 5.341 0 0 1 1.655-3.925 5.46 5.46 0 0 1 3.956-1.655h48.63c4.38.31 8.547 2.007 11.896 4.845a29.743 29.743 0 0 0 18.275 4.875c12.796 0 19.194-2.31 19.194-6.93 0-2.964-2.3-5.232-6.899-6.807a159.261 159.261 0 0 0-26.124-4.814c-44.133-5.642-66.199-23.794-66.199-54.456.002-16.764 7.259-30.418 21.772-40.966z"/></svg>
