<svg xmlns="http://www.w3.org/2000/svg" viewBox="0 0 626.18 118.46"><defs><style>.a{fill:#E11E26}.c{fill:#79431B}.d{fill:#FFF}.f{fill:#DE8C4A}.g{fill:#010101}.i{fill:#D72B2A}</style></defs><path class="a" d="M102.59 0h-68.39l-34.2 59.23 34.2 59.23h68.39l34.19-59.23-34.19-59.23z"/><path fill="#F04C4A" d="M131.69 58.5l-31.11-53.88h-32.49v107.76h32.49l31.11-53.88z"/><ellipse class="c" cx="67.01" cy="72.21" rx="26.96" ry="29.43"/><path class="d" d="M73.16 102.51l-4.76-2.75a.72.72 0 0 0-.58 0l-4.75 2.75a.64.64 0 0 0-.29.5v5.51a.57.57 0 0 0 .29.5l4.76 2.75a.72.72 0 0 0 .58 0l4.75-2.75a.64.64 0 0 0 .29-.5v-5.51a.57.57 0 0 0-.29-.5zm-5.06-1.06a.4.4 0 1 1 .4-.4.4.4 0 0 1-.4.4z"/><path class="a" d="M67.48 107.96l.21.07a1.16 1.16 0 0 0 .35 0 .76.76 0 0 0 .57-.24.83.83 0 0 0 .23-.6.94.94 0 0 0-.47-.82 1.32 1.32 0 0 1-.22-.17l-.4-.23a3.17 3.17 0 0 1-.33-.25l-.35-.28a1.87 1.87 0 0 1-.49-.47 2.23 2.23 0 0 1-.29-.79v-.39a.4.4 0 0 1 0-.18v-.12a1.35 1.35 0 0 1 .16-.4 1.44 1.44 0 0 1 .32-.29l.25-.16.18-.06a3.57 3.57 0 0 1 .89-.11h.7100000000000001a1.68 1.68 0 0 1 .63.19.43.43 0 0 1 .31.36.86.86 0 0 1-.13.28s0 .14-.07.35a.31.31 0 0 1-.3.32.82.82 0 0 1-.37-.19 1.59 1.59 0 0 0-.37-.18 1.15 1.15 0 0 0-.34-.09h-.31a.4.4 0 0 0-.27.14.41.41 0 0 0-.12.28.77.77 0 0 0 .42.57 9 9 0 0 1 1.4 1.11 2.86 2.86 0 0 1 .61.87 1.72 1.72 0 0 1 .14.6 2.59 2.59 0 0 1-.17 1 1.74 1.74 0 0 1-.4.58 1.65 1.65 0 0 1-.82.42 5 5 0 0 1-.81 0h-.4a3.58 3.58 0 0 1-.64-.12h-.23a1.17 1.17 0 0 1-.39-.11.54.54 0 0 1-.09-.38.76.76 0 0 1 .07-.25l.07-.18v-.22q0-.36.24-.37a.66.66 0 0 1 .37.19 2 2 0 0 0 .65.32z"/><path fill="#EAE1DA" d="M74.12 28.69c-2-.13-3.93-.51-5.85-.51a35.29 35.29 0 0 0-6.3.6c-15.32 2.79-27.77 12-24.09 27 1.81 7.38 6.21 12.12 7.9 16.83 4.48 12.48 4 18.89 12.59 21.66a33.37 33.37 0 0 0 22.4-.73c7.83-3.13 7.56-9.12 11.39-21.67 1.41-4.6 6-12.27 6.82-19.15 1.79-14.26-14.82-23.36-24.86-24.03z"/><path class="f" d="M66.05 44.66a32.44 32.44 0 0 0-4.08-15.89c-15.32 2.79-27.77 12-24.09 27 1.81 7.38 6.21 12.12 7.9 16.83v.14c11.68-3.08 20.27-14.08 20.27-28.08zM74.12 28.69h-.09a32.43 32.43 0 0 0-4.14 16c0 14.67 9.45 26 21.94 28.48.12-.42.24-.83.38-1.27 1.41-4.6 6-12.27 6.82-19.15 1.74-14.29-14.87-23.39-24.91-24.06z"/><path class="g" d="M74.25 84.7c0 1.52-3.15 4.54-4.67 4.54s-4-3-4-4.54a2.76 2.76 0 0 1 2.76-2.76h3.2a2.76 2.76 0 0 1 2.76 2.76z"/><circle class="g" cx="52.84" cy="59.37" r="4.6"/><circle class="d" cx="52.2" cy="57.45" r="1.91"/><circle class="g" cx="85.81" cy="59.37" r="4.6"/><circle class="d" cx="85.17" cy="57.45" r="1.91"/><path class="c" d="M56.57 30.55s8.8-3.7 1.4-6.54-30.2 1.58-32.79 8.5c0 0 5 28.62 6 29.28s14.29-29.27 25.39-31.24zM79.7 30.57s-8.78-3.15-1.07-6.47 30.76-.33 33 6.44c0 0-6.65 29-7.74 29.74s-12.97-28.43-24.19-29.71z"/><path fill="#D86F6F" d="M67,92.05s-1,3,2.89,3,2.36-3,2.36-3l-2.33-1Z"/><path class="c" d="M74.15 92.59a6 6 0 0 1-2.26-.54 5.2 5.2 0 0 0-1.95-.48 3.66 3.66 0 0 0-1.23.36 4.35 4.35 0 0 1-3.64.22c-1.29-.55-3.74-3-4.16-4.3a.54.54 0 0 1 1-.32 9.64 9.64 0 0 0 3.56 3.63 3.32 3.32 0 0 0 2.82-.23 4.45 4.45 0 0 1 1.63-.43 5.71 5.71 0 0 1 2.36.55 3.92 3.92 0 0 0 2.79.33c1.64-.47 3.07-3.23 3.61-4.27a.54.54 0 1 1 1 .49c-1 2-2.42 4.28-4.27 4.81a4.43 4.43 0 0 1-1.26.18z"/><path class="i" d="M626.18 61v6.38q0 9-5 13.8a17.09 17.09 0 0 1-12.23 4.76q-7.22 0-11.57-3.92v17.36a2.3 2.3 0 0 1-.67 1.65 2.13 2.13 0 0 1-1.59.69h-15.45a2.28 2.28 0 0 1-2.25-2.25v-54.78a2.28 2.28 0 0 1 2.25-2.25h14.2a2.11 2.11 0 0 1 1.59.71 2.39 2.39 0 0 1 .67 1.69v2.67q4.34-5.15 12.27-5.16t12.86 4.56q4.92 4.56 4.92 14.09zm-28.81.67v5.57q.25 3.76 4.18 3.76 4.17 0 4.17-4.36v-5q0-4.36-4.17-4.36t-4.18 4.38zM571.16 61v6.38q0 9-5 13.8a17.09 17.09 0 0 1-12.23 4.76q-7.22 0-11.57-3.92v17.36a2.3 2.3 0 0 1-.67 1.65 2.13 2.13 0 0 1-1.59.69h-15.45a2.28 2.28 0 0 1-2.25-2.25v-54.78a2.28 2.28 0 0 1 2.25-2.25h14.19a2.11 2.11 0 0 1 1.59.71 2.39 2.39 0 0 1 .67 1.69v2.67q4.34-5.15 12.27-5.16t12.86 4.56q4.93 4.56 4.93 14.09zm-28.81.67v5.57q.25 3.76 4.18 3.76 4.17 0 4.17-4.36v-5q0-4.36-4.17-4.36t-4.18 4.38zM475.97 27.41h18.12a3.5 3.5 0 0 1 3.76 2.75l18.62 53.27a2.77 2.77 0 0 1 .08.79 1.56 1.56 0 0 1-.54 1.08 1.77 1.77 0 0 1-1.29.54h-15.46a3.1 3.1 0 0 1-3.26-2.09l-2-5.51h-18l-2 5.51a3.1 3.1 0 0 1-3.23 2.1h-15.43a1.76 1.76 0 0 1-1.29-.54 1.56 1.56 0 0 1-.54-1.08 2.74 2.74 0 0 1 .08-.79l18.62-53.27a3.5 3.5 0 0 1 3.76-2.76zm4.34 34.57h9.46l-4.78-15.53zM420.53 49.53h29.47a2.28 2.28 0 0 1 2.25 2.25v11.87a2.28 2.28 0 0 1-2.25 2.25h-29.47a2.28 2.28 0 0 1-2.25-2.25v-11.86a2.28 2.28 0 0 1 2.25-2.26zM397.77 57.05v9.19q0 4.18 3.59 4.17h7.6a2.28 2.28 0 0 1 2.26 2.25v10.94a2.28 2.28 0 0 1-2.3 2.25h-9.43q-20.88 0-20.87-18v-10.8h-6.6a2.28 2.28 0 0 1-2.25-2.25v-10.11a2.28 2.28 0 0 1 2.25-2.25h6.6v-13a2 2 0 0 1 .67-1.51 2.22 2.22 0 0 1 1.59-.64h14.61a2.23 2.23 0 0 1 1.59.64 2 2 0 0 1 .67 1.51v13h10.52a2.28 2.28 0 0 1 2.26 2.25v10.1a2.28 2.28 0 0 1-2.26 2.25h-10.5zM315.99 67.31v-22.66a2.11 2.11 0 0 1 .67-1.56 2.18 2.18 0 0 1 1.59-.66h15.95a2.2 2.2 0 0 1 1.59.65 2.09 2.09 0 0 1 .67 1.55v21.89q0 4.48 4.17 4.47t4.14-4.47v-21.89a2.08 2.08 0 0 1 .67-1.55 2.2 2.2 0 0 1 1.59-.65h15.86a2.28 2.28 0 0 1 2.25 2.25v38.92a2.28 2.28 0 0 1-2.23 2.25h-14.61a2.12 2.12 0 0 1-1.59-.7 2.32 2.32 0 0 1-.67-1.66v-2.88q-3.93 5.33-13.86 5.33a15.58 15.58 0 0 1-11.52-4.72q-4.67-4.72-4.67-13.91zM262.97 66.85v-5.45q0-9.2 6.76-14.13t17.45-4.92q10.69 0 17.45 4.92t6.76 14.13v5.45q0 9.28-6.51 14.17t-17.7 4.88q-11.19 0-17.7-4.88t-6.51-14.17zm28 .48v-6.4a7.24 7.24 0 0 0-.83-4.06 4.28 4.28 0 0 0-5.84 0 7.23 7.23 0 0 0-.83 4.06v6.44q0 3.07.83 4.14a3.5 3.5 0 0 0 2.92 1.07 3.38 3.38 0 0 0 2.92-1.15 7.25 7.25 0 0 0 .8-4.06zM232.24 61.49v5.36a7 7 0 0 0 .75 3.72 2.6 2.6 0 0 0 2.34 1.14 3.49 3.49 0 0 0 2.17-.49 5.46 5.46 0 0 0 1.21-1.9 2.36 2.36 0 0 1 2.38-1.47h16.28a2.19 2.19 0 0 1 1.59.65 2.3 2.3 0 0 1 .67 1.72 8 8 0 0 1-.75 2.86 17.78 17.78 0 0 1-2.59 4.09 22.81 22.81 0 0 1-4.52 4.23 23.76 23.76 0 0 1-7 3.23 33.2 33.2 0 0 1-9.6 1.31q-10.44 0-16.91-5.29t-6.49-14.65v-3.71q0-9.36 6.47-14.65t16.91-5.29a32.27 32.27 0 0 1 11.19 1.84 21.53 21.53 0 0 1 7.72 4.5 23.6 23.6 0 0 1 4.15 5.16 9 9 0 0 1 1.42 3.88 2.7 2.7 0 0 1-.67 2 2.19 2.19 0 0 1-1.59.65h-16.28a2.63 2.63 0 0 1-2.42-1.52q-1.17-2.28-3.09-2.28-3.34.05-3.34 4.91zM161.77 32.49q7.06-5.16 18.54-5.16t18.74 5.52q7.31 5.55 7.31 11.59a1.75 1.75 0 0 1-.59 1.31 1.68 1.68 0 0 1-1.21.54h-16.7a5.3 5.3 0 0 1-3.51-1.34 6.38 6.38 0 0 0-4.26-1.34q-4 0-4 2.26 0 1.21 2 2a32.36 32.36 0 0 0 7.31 1.45q12.44 1.53 17.74 5.6t5.3 12.34q0 8.27-7.81 13.47t-20.42 5.2q-12.61 0-19.79-5.13t-7.18-12.49a1.74 1.74 0 0 1 .54-1.28 1.78 1.78 0 0 1 1.29-.54h15.86a6.74 6.74 0 0 1 3.88 1.58 9.7 9.7 0 0 0 5.96 1.59q6.26 0 6.26-2.26 0-1.45-2.25-2.22a51.94 51.94 0 0 0-8.52-1.57q-21.59-2.76-21.59-17.76 0-8.2 7.1-13.36z"/></svg>
